<?xml version="1.0" encoding="utf-8"?>
<!-- Generator: Adobe Illustrator 21.1.0, SVG Export Plug-In . SVG Version: 6.00 Build 0)  -->
<svg version="1.1" id="Ebene_1" xmlns="http://www.w3.org/2000/svg" xmlns:xlink="http://www.w3.org/1999/xlink" x="0px" y="0px"
	 viewBox="0 0 540 600" style="enable-background:new 0 0 540 600;" xml:space="preserve">
<style type="text/css">
	.st0{opacity:0.13;}
	.st1{clip-path:url(#SVGID_2_);}
	.st2{clip-path:url(#SVGID_4_);}
	.st3{fill:#FFD300;}
	.st4{clip-path:url(#SVGID_6_);}
	.st5{clip-path:url(#SVGID_8_);}
	.st6{clip-path:url(#SVGID_10_);}
	.st7{clip-path:url(#SVGID_12_);}
	.st8{clip-path:url(#SVGID_14_);}
	.st9{clip-path:url(#SVGID_16_);}
	.st10{clip-path:url(#SVGID_18_);}
	.st11{clip-path:url(#SVGID_20_);}
	.st12{clip-path:url(#SVGID_22_);}
	.st13{clip-path:url(#SVGID_24_);}
	.st14{clip-path:url(#SVGID_26_);}
</style>
<g class="st0">
	<g>
		<defs>
			<rect id="SVGID_1_" x="0" y="0" width="540" height="600"/>
		</defs>
		<clipPath id="SVGID_2_">
			<use xlink:href="#SVGID_1_"  style="overflow:visible;"/>
		</clipPath>
		<g class="st1">
			<g>
				<defs>
					<rect id="SVGID_3_" x="480" y="-165" width="180" height="315"/>
				</defs>
				<clipPath id="SVGID_4_">
					<use xlink:href="#SVGID_3_"  style="overflow:visible;"/>
				</clipPath>
				<g class="st2">
					<path class="st3" d="M547.4,83.2l24.4,42.3l-24.4,42.3h-48.8l-24.4-42.3l24.4-42.3 M548,82.2h-50l-25,43.3l25,43.3h50l25-43.3
						L548,82.2L548,82.2z"/>
					<path class="st3" d="M457.4,132.2l24.4,42.3l-24.4,42.3h-48.8l-24.4-42.3l24.4-42.3H457.4 M458,131.2h-50l-25,43.3l25,43.3h50
						l25-43.3L458,131.2L458,131.2z"/>
				</g>
				<g class="st2">
					<path class="st3" d="M547.4-25.3L571.8,17l-24.4,42.3h-48.8L474.2,17l24.4-42.3H547.4 M548-26.3h-50L473,17l25,43.3h50L573,17
						L548-26.3L548-26.3z"/>
				</g>
				<g class="st2">
					<path class="st3" d="M457.4-74.3L481.8-32l-24.4,42.3h-48.8L384.2-32l24.4-42.3 M458-75.3h-50L383-32l25,43.3h50L483-32
						L458-75.3L458-75.3z"/>
					<path class="st3" d="M457.4,31.7L481.8,74l-24.4,42.3h-48.8L384.2,74l24.4-42.3H457.4 M458,30.7h-50L383,74l25,43.3h50L483,74
						L458,30.7L458,30.7z"/>
				</g>
			</g>
		</g>
		<g class="st1">
			<g>
				<defs>
					<rect id="SVGID_5_" x="480" y="150" width="180" height="315"/>
				</defs>
				<clipPath id="SVGID_6_">
					<use xlink:href="#SVGID_5_"  style="overflow:visible;"/>
				</clipPath>
				<g class="st4">
					<path class="st3" d="M547.4,398.2l24.4,42.3l-24.4,42.3h-48.8l-24.4-42.3l24.4-42.3 M548,397.2h-50l-25,43.3l25,43.3h50
						l25-43.3L548,397.2L548,397.2z"/>
					<path class="st3" d="M457.4,447.2l24.4,42.3l-24.4,42.3h-48.8l-24.4-42.3l24.4-42.3H457.4 M458,446.2h-50l-25,43.3l25,43.3h50
						l25-43.3L458,446.2L458,446.2z"/>
				</g>
				<g class="st4">
					<path class="st3" d="M547.4,289.7l24.4,42.3l-24.4,42.3h-48.8L474.2,332l24.4-42.3H547.4 M548,288.7h-50L473,332l25,43.3h50
						l25-43.3L548,288.7L548,288.7z"/>
				</g>
				<g class="st4">
					<path class="st3" d="M457.4,240.7l24.4,42.3l-24.4,42.3h-48.8L384.2,283l24.4-42.3 M458,239.7h-50L383,283l25,43.3h50l25-43.3
						L458,239.7L458,239.7z"/>
					<path class="st3" d="M457.4,346.7l24.4,42.3l-24.4,42.3h-48.8L384.2,389l24.4-42.3H457.4 M458,345.7h-50L383,389l25,43.3h50
						l25-43.3L458,345.7L458,345.7z"/>
				</g>
				<g class="st4">
					<path class="st3" d="M547.4,83.2l24.4,42.3l-24.4,42.3h-48.8l-24.4-42.3l24.4-42.3 M548,82.2h-50l-25,43.3l25,43.3h50l25-43.3
						L548,82.2L548,82.2z"/>
					<path class="st3" d="M547.4,189.2l24.4,42.3l-24.4,42.3h-48.8l-24.4-42.3l24.4-42.3H547.4 M548,188.2h-50l-25,43.3l25,43.3h50
						l25-43.3L548,188.2L548,188.2z"/>
					<path class="st3" d="M457.4,132.2l24.4,42.3l-24.4,42.3h-48.8l-24.4-42.3l24.4-42.3H457.4 M458,131.2h-50l-25,43.3l25,43.3h50
						l25-43.3L458,131.2L458,131.2z"/>
				</g>
			</g>
		</g>
		<g class="st1">
			<g>
				<defs>
					<rect id="SVGID_7_" x="480" y="465" width="180" height="315"/>
				</defs>
				<clipPath id="SVGID_8_">
					<use xlink:href="#SVGID_7_"  style="overflow:visible;"/>
				</clipPath>
				<g class="st5">
				</g>
				<g class="st5">
					<path class="st3" d="M457.4,555.7l24.4,42.3l-24.4,42.3h-48.8L384.2,598l24.4-42.3 M458,554.7h-50L383,598l25,43.3h50l25-43.3
						L458,554.7L458,554.7z"/>
				</g>
				<g class="st5">
					<path class="st3" d="M547.4,398.2l24.4,42.3l-24.4,42.3h-48.8l-24.4-42.3l24.4-42.3 M548,397.2h-50l-25,43.3l25,43.3h50
						l25-43.3L548,397.2L548,397.2z"/>
					<path class="st3" d="M547.4,504.2l24.4,42.3l-24.4,42.3h-48.8l-24.4-42.3l24.4-42.3H547.4 M548,503.2h-50l-25,43.3l25,43.3h50
						l25-43.3L548,503.2L548,503.2z"/>
					<path class="st3" d="M457.4,447.2l24.4,42.3l-24.4,42.3h-48.8l-24.4-42.3l24.4-42.3H457.4 M458,446.2h-50l-25,43.3l25,43.3h50
						l25-43.3L458,446.2L458,446.2z"/>
				</g>
			</g>
		</g>
		<g class="st1">
			<g>
				<defs>
					<rect id="SVGID_9_" x="300" y="-165" width="180" height="315"/>
				</defs>
				<clipPath id="SVGID_10_">
					<use xlink:href="#SVGID_9_"  style="overflow:visible;"/>
				</clipPath>
				<g class="st6">
					<path class="st3" d="M547.4,83.2l24.4,42.3l-24.4,42.3h-48.8l-24.4-42.3l24.4-42.3 M548,82.2h-50l-25,43.3l25,43.3h50l25-43.3
						L548,82.2L548,82.2z"/>
					<path class="st3" d="M457.4,132.2l24.4,42.3l-24.4,42.3h-48.8l-24.4-42.3l24.4-42.3H457.4 M458,131.2h-50l-25,43.3l25,43.3h50
						l25-43.3L458,131.2L458,131.2z"/>
				</g>
				<g class="st6">
					<path class="st3" d="M367.4,83.2l24.4,42.3l-24.4,42.3h-48.8l-24.4-42.3l24.4-42.3 M368,82.2h-50l-25,43.3l25,43.3h50l25-43.3
						L368,82.2L368,82.2z"/>
					<path class="st3" d="M277.4,132.2l24.4,42.3l-24.4,42.3h-48.8l-24.4-42.3l24.4-42.3H277.4 M278,131.2h-50l-25,43.3l25,43.3h50
						l25-43.3L278,131.2L278,131.2z"/>
				</g>
				<g class="st6">
					<path class="st3" d="M547.4-25.3L571.8,17l-24.4,42.3h-48.8L474.2,17l24.4-42.3H547.4 M548-26.3h-50L473,17l25,43.3h50L573,17
						L548-26.3L548-26.3z"/>
				</g>
				<g class="st6">
					<path class="st3" d="M457.4-74.3L481.8-32l-24.4,42.3h-48.8L384.2-32l24.4-42.3 M458-75.3h-50L383-32l25,43.3h50L483-32
						L458-75.3L458-75.3z"/>
					<path class="st3" d="M457.4,31.7L481.8,74l-24.4,42.3h-48.8L384.2,74l24.4-42.3H457.4 M458,30.7h-50L383,74l25,43.3h50L483,74
						L458,30.7L458,30.7z"/>
					<path class="st3" d="M367.4-25.3L391.8,17l-24.4,42.3h-48.8L294.2,17l24.4-42.3H367.4 M368-26.3h-50L293,17l25,43.3h50L393,17
						L368-26.3L368-26.3z"/>
				</g>
				<g class="st6">
					<path class="st3" d="M277.4-74.3L301.8-32l-24.4,42.3h-48.8L204.2-32l24.4-42.3 M278-75.3h-50L203-32l25,43.3h50L303-32
						L278-75.3L278-75.3z"/>
					<path class="st3" d="M277.4,31.7L301.8,74l-24.4,42.3h-48.8L204.2,74l24.4-42.3H277.4 M278,30.7h-50L203,74l25,43.3h50L303,74
						L278,30.7L278,30.7z"/>
				</g>
			</g>
		</g>
		<g class="st1">
			<g>
				<defs>
					<rect id="SVGID_11_" x="300" y="150" width="180" height="315"/>
				</defs>
				<clipPath id="SVGID_12_">
					<use xlink:href="#SVGID_11_"  style="overflow:visible;"/>
				</clipPath>
				<g class="st7">
					<path class="st3" d="M547.4,398.2l24.4,42.3l-24.4,42.3h-48.8l-24.4-42.3l24.4-42.3 M548,397.2h-50l-25,43.3l25,43.3h50
						l25-43.3L548,397.2L548,397.2z"/>
					<path class="st3" d="M457.4,447.2l24.4,42.3l-24.4,42.3h-48.8l-24.4-42.3l24.4-42.3H457.4 M458,446.2h-50l-25,43.3l25,43.3h50
						l25-43.3L458,446.2L458,446.2z"/>
				</g>
				<g class="st7">
					<path class="st3" d="M367.4,398.2l24.4,42.3l-24.4,42.3h-48.8l-24.4-42.3l24.4-42.3 M368,397.2h-50l-25,43.3l25,43.3h50
						l25-43.3L368,397.2L368,397.2z"/>
					<path class="st3" d="M277.4,447.2l24.4,42.3l-24.4,42.3h-48.8l-24.4-42.3l24.4-42.3H277.4 M278,446.2h-50l-25,43.3l25,43.3h50
						l25-43.3L278,446.2L278,446.2z"/>
				</g>
				<g class="st7">
					<path class="st3" d="M547.4,289.7l24.4,42.3l-24.4,42.3h-48.8L474.2,332l24.4-42.3H547.4 M548,288.7h-50L473,332l25,43.3h50
						l25-43.3L548,288.7L548,288.7z"/>
				</g>
				<g class="st7">
					<path class="st3" d="M457.4,240.7l24.4,42.3l-24.4,42.3h-48.8L384.2,283l24.4-42.3 M458,239.7h-50L383,283l25,43.3h50l25-43.3
						L458,239.7L458,239.7z"/>
					<path class="st3" d="M457.4,346.7l24.4,42.3l-24.4,42.3h-48.8L384.2,389l24.4-42.3H457.4 M458,345.7h-50L383,389l25,43.3h50
						l25-43.3L458,345.7L458,345.7z"/>
					<path class="st3" d="M367.4,289.7l24.4,42.3l-24.4,42.3h-48.8L294.2,332l24.4-42.3H367.4 M368,288.7h-50L293,332l25,43.3h50
						l25-43.3L368,288.7L368,288.7z"/>
				</g>
				<g class="st7">
					<path class="st3" d="M277.4,240.7l24.4,42.3l-24.4,42.3h-48.8L204.2,283l24.4-42.3 M278,239.7h-50L203,283l25,43.3h50l25-43.3
						L278,239.7L278,239.7z"/>
					<path class="st3" d="M277.4,346.7l24.4,42.3l-24.4,42.3h-48.8L204.2,389l24.4-42.3H277.4 M278,345.7h-50L203,389l25,43.3h50
						l25-43.3L278,345.7L278,345.7z"/>
				</g>
				<g class="st7">
					<path class="st3" d="M547.4,83.2l24.4,42.3l-24.4,42.3h-48.8l-24.4-42.3l24.4-42.3 M548,82.2h-50l-25,43.3l25,43.3h50l25-43.3
						L548,82.2L548,82.2z"/>
					<path class="st3" d="M547.4,189.2l24.4,42.3l-24.4,42.3h-48.8l-24.4-42.3l24.4-42.3H547.4 M548,188.2h-50l-25,43.3l25,43.3h50
						l25-43.3L548,188.2L548,188.2z"/>
					<path class="st3" d="M457.4,132.2l24.4,42.3l-24.4,42.3h-48.8l-24.4-42.3l24.4-42.3H457.4 M458,131.2h-50l-25,43.3l25,43.3h50
						l25-43.3L458,131.2L458,131.2z"/>
				</g>
				<g class="st7">
					<path class="st3" d="M367.4,83.2l24.4,42.3l-24.4,42.3h-48.8l-24.4-42.3l24.4-42.3 M368,82.2h-50l-25,43.3l25,43.3h50l25-43.3
						L368,82.2L368,82.2z"/>
					<path class="st3" d="M367.4,189.2l24.4,42.3l-24.4,42.3h-48.8l-24.4-42.3l24.4-42.3H367.4 M368,188.2h-50l-25,43.3l25,43.3h50
						l25-43.3L368,188.2L368,188.2z"/>
					<path class="st3" d="M277.4,132.2l24.4,42.3l-24.4,42.3h-48.8l-24.4-42.3l24.4-42.3H277.4 M278,131.2h-50l-25,43.3l25,43.3h50
						l25-43.3L278,131.2L278,131.2z"/>
				</g>
			</g>
		</g>
		<g class="st1">
			<g>
				<defs>
					<rect id="SVGID_13_" x="300" y="465" width="180" height="315"/>
				</defs>
				<clipPath id="SVGID_14_">
					<use xlink:href="#SVGID_13_"  style="overflow:visible;"/>
				</clipPath>
				<g class="st8">
					<path class="st3" d="M457.4,555.7l24.4,42.3l-24.4,42.3h-48.8L384.2,598l24.4-42.3 M458,554.7h-50L383,598l25,43.3h50l25-43.3
						L458,554.7L458,554.7z"/>
				</g>
				<g class="st8">
					<path class="st3" d="M277.4,555.7l24.4,42.3l-24.4,42.3h-48.8L204.2,598l24.4-42.3 M278,554.7h-50L203,598l25,43.3h50l25-43.3
						L278,554.7L278,554.7z"/>
				</g>
				<g class="st8">
					<path class="st3" d="M547.4,398.2l24.4,42.3l-24.4,42.3h-48.8l-24.4-42.3l24.4-42.3 M548,397.2h-50l-25,43.3l25,43.3h50
						l25-43.3L548,397.2L548,397.2z"/>
					<path class="st3" d="M547.4,504.2l24.4,42.3l-24.4,42.3h-48.8l-24.4-42.3l24.4-42.3H547.4 M548,503.2h-50l-25,43.3l25,43.3h50
						l25-43.3L548,503.2L548,503.2z"/>
					<path class="st3" d="M457.4,447.2l24.4,42.3l-24.4,42.3h-48.8l-24.4-42.3l24.4-42.3H457.4 M458,446.2h-50l-25,43.3l25,43.3h50
						l25-43.3L458,446.2L458,446.2z"/>
				</g>
				<g class="st8">
					<path class="st3" d="M367.4,398.2l24.4,42.3l-24.4,42.3h-48.8l-24.4-42.3l24.4-42.3 M368,397.2h-50l-25,43.3l25,43.3h50
						l25-43.3L368,397.2L368,397.2z"/>
					<path class="st3" d="M367.4,504.2l24.4,42.3l-24.4,42.3h-48.8l-24.4-42.3l24.4-42.3H367.4 M368,503.2h-50l-25,43.3l25,43.3h50
						l25-43.3L368,503.2L368,503.2z"/>
					<path class="st3" d="M277.4,447.2l24.4,42.3l-24.4,42.3h-48.8l-24.4-42.3l24.4-42.3H277.4 M278,446.2h-50l-25,43.3l25,43.3h50
						l25-43.3L278,446.2L278,446.2z"/>
				</g>
			</g>
		</g>
		<g class="st1">
			<g>
				<defs>
					<rect id="SVGID_15_" x="120" y="-165" width="180" height="315"/>
				</defs>
				<clipPath id="SVGID_16_">
					<use xlink:href="#SVGID_15_"  style="overflow:visible;"/>
				</clipPath>
				<g class="st9">
					<path class="st3" d="M367.4,83.2l24.4,42.3l-24.4,42.3h-48.8l-24.4-42.3l24.4-42.3 M368,82.2h-50l-25,43.3l25,43.3h50l25-43.3
						L368,82.2L368,82.2z"/>
					<path class="st3" d="M277.4,132.2l24.4,42.3l-24.4,42.3h-48.8l-24.4-42.3l24.4-42.3H277.4 M278,131.2h-50l-25,43.3l25,43.3h50
						l25-43.3L278,131.2L278,131.2z"/>
				</g>
				<g class="st9">
					<path class="st3" d="M187.4,83.2l24.4,42.3l-24.4,42.3h-48.8l-24.4-42.3l24.4-42.3 M188,82.2h-50l-25,43.3l25,43.3h50l25-43.3
						L188,82.2L188,82.2z"/>
					<path class="st3" d="M97.4,132.2l24.4,42.3l-24.4,42.3H48.6l-24.4-42.3l24.4-42.3H97.4 M98,131.2H48l-25,43.3l25,43.3h50
						l25-43.3L98,131.2L98,131.2z"/>
				</g>
				<g class="st9">
					<path class="st3" d="M367.4-25.3L391.8,17l-24.4,42.3h-48.8L294.2,17l24.4-42.3H367.4 M368-26.3h-50L293,17l25,43.3h50L393,17
						L368-26.3L368-26.3z"/>
				</g>
				<g class="st9">
					<path class="st3" d="M277.4-74.3L301.8-32l-24.4,42.3h-48.8L204.2-32l24.4-42.3 M278-75.3h-50L203-32l25,43.3h50L303-32
						L278-75.3L278-75.3z"/>
					<path class="st3" d="M277.4,31.7L301.8,74l-24.4,42.3h-48.8L204.2,74l24.4-42.3H277.4 M278,30.7h-50L203,74l25,43.3h50L303,74
						L278,30.7L278,30.7z"/>
					<path class="st3" d="M187.4-25.3L211.8,17l-24.4,42.3h-48.8L114.2,17l24.4-42.3H187.4 M188-26.3h-50L113,17l25,43.3h50L213,17
						L188-26.3L188-26.3z"/>
				</g>
				<g class="st9">
					<path class="st3" d="M97.4-74.3L121.8-32L97.4,10.3H48.6L24.2-32l24.4-42.3 M98-75.3H48L23-32l25,43.3h50L123-32L98-75.3
						L98-75.3z"/>
					<path class="st3" d="M97.4,31.7L121.8,74l-24.4,42.3H48.6L24.2,74l24.4-42.3H97.4 M98,30.7H48L23,74l25,43.3h50L123,74L98,30.7
						L98,30.7z"/>
				</g>
			</g>
		</g>
		<g class="st1">
			<g>
				<defs>
					<rect id="SVGID_17_" x="120" y="150" width="180" height="315"/>
				</defs>
				<clipPath id="SVGID_18_">
					<use xlink:href="#SVGID_17_"  style="overflow:visible;"/>
				</clipPath>
				<g class="st10">
					<path class="st3" d="M367.4,398.2l24.4,42.3l-24.4,42.3h-48.8l-24.4-42.3l24.4-42.3 M368,397.2h-50l-25,43.3l25,43.3h50
						l25-43.3L368,397.2L368,397.2z"/>
					<path class="st3" d="M277.4,447.2l24.4,42.3l-24.4,42.3h-48.8l-24.4-42.3l24.4-42.3H277.4 M278,446.2h-50l-25,43.3l25,43.3h50
						l25-43.3L278,446.2L278,446.2z"/>
				</g>
				<g class="st10">
					<path class="st3" d="M187.4,398.2l24.4,42.3l-24.4,42.3h-48.8l-24.4-42.3l24.4-42.3 M188,397.2h-50l-25,43.3l25,43.3h50
						l25-43.3L188,397.2L188,397.2z"/>
					<path class="st3" d="M97.4,447.2l24.4,42.3l-24.4,42.3H48.6l-24.4-42.3l24.4-42.3H97.4 M98,446.2H48l-25,43.3l25,43.3h50
						l25-43.3L98,446.2L98,446.2z"/>
				</g>
				<g class="st10">
					<path class="st3" d="M367.4,289.7l24.4,42.3l-24.4,42.3h-48.8L294.2,332l24.4-42.3H367.4 M368,288.7h-50L293,332l25,43.3h50
						l25-43.3L368,288.7L368,288.7z"/>
				</g>
				<g class="st10">
					<path class="st3" d="M277.4,240.7l24.4,42.3l-24.4,42.3h-48.8L204.2,283l24.4-42.3 M278,239.7h-50L203,283l25,43.3h50l25-43.3
						L278,239.7L278,239.7z"/>
					<path class="st3" d="M277.4,346.7l24.4,42.3l-24.4,42.3h-48.8L204.2,389l24.4-42.3H277.4 M278,345.7h-50L203,389l25,43.3h50
						l25-43.3L278,345.7L278,345.7z"/>
					<path class="st3" d="M187.4,289.7l24.4,42.3l-24.4,42.3h-48.8L114.2,332l24.4-42.3H187.4 M188,288.7h-50L113,332l25,43.3h50
						l25-43.3L188,288.7L188,288.7z"/>
				</g>
				<g class="st10">
					<path class="st3" d="M97.4,240.7l24.4,42.3l-24.4,42.3H48.6L24.2,283l24.4-42.3 M98,239.7H48L23,283l25,43.3h50l25-43.3
						L98,239.7L98,239.7z"/>
					<path class="st3" d="M97.4,346.7l24.4,42.3l-24.4,42.3H48.6L24.2,389l24.4-42.3H97.4 M98,345.7H48L23,389l25,43.3h50l25-43.3
						L98,345.7L98,345.7z"/>
				</g>
				<g class="st10">
					<path class="st3" d="M367.4,83.2l24.4,42.3l-24.4,42.3h-48.8l-24.4-42.3l24.4-42.3 M368,82.2h-50l-25,43.3l25,43.3h50l25-43.3
						L368,82.2L368,82.2z"/>
					<path class="st3" d="M367.4,189.2l24.4,42.3l-24.4,42.3h-48.8l-24.4-42.3l24.4-42.3H367.4 M368,188.2h-50l-25,43.3l25,43.3h50
						l25-43.3L368,188.2L368,188.2z"/>
					<path class="st3" d="M277.4,132.2l24.4,42.3l-24.4,42.3h-48.8l-24.4-42.3l24.4-42.3H277.4 M278,131.2h-50l-25,43.3l25,43.3h50
						l25-43.3L278,131.2L278,131.2z"/>
				</g>
				<g class="st10">
					<path class="st3" d="M187.4,83.2l24.4,42.3l-24.4,42.3h-48.8l-24.4-42.3l24.4-42.3 M188,82.2h-50l-25,43.3l25,43.3h50l25-43.3
						L188,82.2L188,82.2z"/>
					<path class="st3" d="M187.4,189.2l24.4,42.3l-24.4,42.3h-48.8l-24.4-42.3l24.4-42.3H187.4 M188,188.2h-50l-25,43.3l25,43.3h50
						l25-43.3L188,188.2L188,188.2z"/>
					<path class="st3" d="M97.4,132.2l24.4,42.3l-24.4,42.3H48.6l-24.4-42.3l24.4-42.3H97.4 M98,131.2H48l-25,43.3l25,43.3h50
						l25-43.3L98,131.2L98,131.2z"/>
				</g>
			</g>
		</g>
		<g class="st1">
			<g>
				<defs>
					<rect id="SVGID_19_" x="120" y="465" width="180" height="315"/>
				</defs>
				<clipPath id="SVGID_20_">
					<use xlink:href="#SVGID_19_"  style="overflow:visible;"/>
				</clipPath>
				<g class="st11">
					<path class="st3" d="M277.4,555.7l24.4,42.3l-24.4,42.3h-48.8L204.2,598l24.4-42.3 M278,554.7h-50L203,598l25,43.3h50l25-43.3
						L278,554.7L278,554.7z"/>
				</g>
				<g class="st11">
					<path class="st3" d="M97.4,555.7l24.4,42.3l-24.4,42.3H48.6L24.2,598l24.4-42.3 M98,554.7H48L23,598l25,43.3h50l25-43.3
						L98,554.7L98,554.7z"/>
				</g>
				<g class="st11">
					<path class="st3" d="M367.4,398.2l24.4,42.3l-24.4,42.3h-48.8l-24.4-42.3l24.4-42.3 M368,397.2h-50l-25,43.3l25,43.3h50
						l25-43.3L368,397.2L368,397.2z"/>
					<path class="st3" d="M367.4,504.2l24.4,42.3l-24.4,42.3h-48.8l-24.4-42.3l24.4-42.3H367.4 M368,503.2h-50l-25,43.3l25,43.3h50
						l25-43.3L368,503.2L368,503.2z"/>
					<path class="st3" d="M277.4,447.2l24.4,42.3l-24.4,42.3h-48.8l-24.4-42.3l24.4-42.3H277.4 M278,446.2h-50l-25,43.3l25,43.3h50
						l25-43.3L278,446.2L278,446.2z"/>
				</g>
				<g class="st11">
					<path class="st3" d="M187.4,398.2l24.4,42.3l-24.4,42.3h-48.8l-24.4-42.3l24.4-42.3 M188,397.2h-50l-25,43.3l25,43.3h50
						l25-43.3L188,397.2L188,397.2z"/>
					<path class="st3" d="M187.4,504.2l24.4,42.3l-24.4,42.3h-48.8l-24.4-42.3l24.4-42.3H187.4 M188,503.2h-50l-25,43.3l25,43.3h50
						l25-43.3L188,503.2L188,503.2z"/>
					<path class="st3" d="M97.4,447.2l24.4,42.3l-24.4,42.3H48.6l-24.4-42.3l24.4-42.3H97.4 M98,446.2H48l-25,43.3l25,43.3h50
						l25-43.3L98,446.2L98,446.2z"/>
				</g>
			</g>
		</g>
		<g class="st1">
			<g>
				<defs>
					<rect id="SVGID_21_" x="-60" y="-165" width="180" height="315"/>
				</defs>
				<clipPath id="SVGID_22_">
					<use xlink:href="#SVGID_21_"  style="overflow:visible;"/>
				</clipPath>
				<g class="st12">
					<path class="st3" d="M187.4,83.2l24.4,42.3l-24.4,42.3h-48.8l-24.4-42.3l24.4-42.3 M188,82.2h-50l-25,43.3l25,43.3h50l25-43.3
						L188,82.2L188,82.2z"/>
					<path class="st3" d="M97.4,132.2l24.4,42.3l-24.4,42.3H48.6l-24.4-42.3l24.4-42.3H97.4 M98,131.2H48l-25,43.3l25,43.3h50
						l25-43.3L98,131.2L98,131.2z"/>
				</g>
				<g class="st12">
					<path class="st3" d="M7.4,83.2l24.4,42.3L7.4,167.8h-48.8l-24.4-42.3l24.4-42.3 M8,82.2h-50l-25,43.3l25,43.3H8l25-43.3L8,82.2
						L8,82.2z"/>
				</g>
				<g class="st12">
					<path class="st3" d="M187.4-25.3L211.8,17l-24.4,42.3h-48.8L114.2,17l24.4-42.3H187.4 M188-26.3h-50L113,17l25,43.3h50L213,17
						L188-26.3L188-26.3z"/>
				</g>
				<g class="st12">
					<path class="st3" d="M97.4-74.3L121.8-32L97.4,10.3H48.6L24.2-32l24.4-42.3 M98-75.3H48L23-32l25,43.3h50L123-32L98-75.3
						L98-75.3z"/>
					<path class="st3" d="M97.4,31.7L121.8,74l-24.4,42.3H48.6L24.2,74l24.4-42.3H97.4 M98,30.7H48L23,74l25,43.3h50L123,74L98,30.7
						L98,30.7z"/>
					<path class="st3" d="M7.4-25.3L31.8,17L7.4,59.3h-48.8L-65.8,17l24.4-42.3H7.4 M8-26.3h-50L-67,17l25,43.3H8L33,17L8-26.3
						L8-26.3z"/>
				</g>
			</g>
		</g>
		<g class="st1">
			<g>
				<defs>
					<rect id="SVGID_23_" x="-60" y="150" width="180" height="315"/>
				</defs>
				<clipPath id="SVGID_24_">
					<use xlink:href="#SVGID_23_"  style="overflow:visible;"/>
				</clipPath>
				<g class="st13">
					<path class="st3" d="M187.4,398.2l24.4,42.3l-24.4,42.3h-48.8l-24.4-42.3l24.4-42.3 M188,397.2h-50l-25,43.3l25,43.3h50
						l25-43.3L188,397.2L188,397.2z"/>
					<path class="st3" d="M97.4,447.2l24.4,42.3l-24.4,42.3H48.6l-24.4-42.3l24.4-42.3H97.4 M98,446.2H48l-25,43.3l25,43.3h50
						l25-43.3L98,446.2L98,446.2z"/>
				</g>
				<g class="st13">
					<path class="st3" d="M7.4,398.2l24.4,42.3L7.4,482.8h-48.8l-24.4-42.3l24.4-42.3 M8,397.2h-50l-25,43.3l25,43.3H8l25-43.3
						L8,397.2L8,397.2z"/>
				</g>
				<g class="st13">
					<path class="st3" d="M187.4,289.7l24.4,42.3l-24.4,42.3h-48.8L114.2,332l24.4-42.3H187.4 M188,288.7h-50L113,332l25,43.3h50
						l25-43.3L188,288.7L188,288.7z"/>
				</g>
				<g class="st13">
					<path class="st3" d="M97.4,240.7l24.4,42.3l-24.4,42.3H48.6L24.2,283l24.4-42.3 M98,239.7H48L23,283l25,43.3h50l25-43.3
						L98,239.7L98,239.7z"/>
					<path class="st3" d="M97.4,346.7l24.4,42.3l-24.4,42.3H48.6L24.2,389l24.4-42.3H97.4 M98,345.7H48L23,389l25,43.3h50l25-43.3
						L98,345.7L98,345.7z"/>
					<path class="st3" d="M7.4,289.7L31.8,332L7.4,374.3h-48.8L-65.8,332l24.4-42.3H7.4 M8,288.7h-50L-67,332l25,43.3H8L33,332
						L8,288.7L8,288.7z"/>
				</g>
				<g class="st13">
					<path class="st3" d="M187.4,83.2l24.4,42.3l-24.4,42.3h-48.8l-24.4-42.3l24.4-42.3 M188,82.2h-50l-25,43.3l25,43.3h50l25-43.3
						L188,82.2L188,82.2z"/>
					<path class="st3" d="M187.4,189.2l24.4,42.3l-24.4,42.3h-48.8l-24.4-42.3l24.4-42.3H187.4 M188,188.2h-50l-25,43.3l25,43.3h50
						l25-43.3L188,188.2L188,188.2z"/>
					<path class="st3" d="M97.4,132.2l24.4,42.3l-24.4,42.3H48.6l-24.4-42.3l24.4-42.3H97.4 M98,131.2H48l-25,43.3l25,43.3h50
						l25-43.3L98,131.2L98,131.2z"/>
				</g>
				<g class="st13">
					<path class="st3" d="M7.4,83.2l24.4,42.3L7.4,167.8h-48.8l-24.4-42.3l24.4-42.3 M8,82.2h-50l-25,43.3l25,43.3H8l25-43.3L8,82.2
						L8,82.2z"/>
					<path class="st3" d="M7.4,189.2l24.4,42.3L7.4,273.8h-48.8l-24.4-42.3l24.4-42.3H7.4 M8,188.2h-50l-25,43.3l25,43.3H8l25-43.3
						L8,188.2L8,188.2z"/>
				</g>
			</g>
		</g>
		<g class="st1">
			<g>
				<defs>
					<rect id="SVGID_25_" x="-60" y="465" width="180" height="315"/>
				</defs>
				<clipPath id="SVGID_26_">
					<use xlink:href="#SVGID_25_"  style="overflow:visible;"/>
				</clipPath>
				<g class="st14">
					<path class="st3" d="M97.4,555.7l24.4,42.3l-24.4,42.3H48.6L24.2,598l24.4-42.3 M98,554.7H48L23,598l25,43.3h50l25-43.3
						L98,554.7L98,554.7z"/>
				</g>
				<g class="st14">
					<path class="st3" d="M187.4,398.2l24.4,42.3l-24.4,42.3h-48.8l-24.4-42.3l24.4-42.3 M188,397.2h-50l-25,43.3l25,43.3h50
						l25-43.3L188,397.2L188,397.2z"/>
					<path class="st3" d="M187.4,504.2l24.4,42.3l-24.4,42.3h-48.8l-24.4-42.3l24.4-42.3H187.4 M188,503.2h-50l-25,43.3l25,43.3h50
						l25-43.3L188,503.2L188,503.2z"/>
					<path class="st3" d="M97.4,447.2l24.4,42.3l-24.4,42.3H48.6l-24.4-42.3l24.4-42.3H97.4 M98,446.2H48l-25,43.3l25,43.3h50
						l25-43.3L98,446.2L98,446.2z"/>
				</g>
				<g class="st14">
					<path class="st3" d="M7.4,398.2l24.4,42.3L7.4,482.8h-48.8l-24.4-42.3l24.4-42.3 M8,397.2h-50l-25,43.3l25,43.3H8l25-43.3
						L8,397.2L8,397.2z"/>
					<path class="st3" d="M7.4,504.2l24.4,42.3L7.4,588.8h-48.8l-24.4-42.3l24.4-42.3H7.4 M8,503.2h-50l-25,43.3l25,43.3H8l25-43.3
						L8,503.2L8,503.2z"/>
				</g>
			</g>
		</g>
	</g>
</g>
</svg>
