<?xml version="1.0" encoding="utf-8"?>
<!-- Generator: Adobe Illustrator 21.1.0, SVG Export Plug-In . SVG Version: 6.00 Build 0)  -->
<svg version="1.1" id="Cointoss" xmlns="http://www.w3.org/2000/svg" xmlns:xlink="http://www.w3.org/1999/xlink" x="0px" y="0px"
	 viewBox="0 0 300 300" style="enable-background:new 0 0 300 300;" xml:space="preserve">
<style type="text/css">
	.st0{fill:#FFD300;}
	.st1{fill:none;stroke:#FFD300;stroke-miterlimit:10;}
</style>
<g>
	<path class="st0" d="M150,28c32.6,0,63.2,12.7,86.3,35.7c23,23,35.7,53.7,35.7,86.3s-12.7,63.2-35.7,86.3
		c-23,23-53.7,35.7-86.3,35.7s-63.2-12.7-86.3-35.7c-23-23-35.7-53.7-35.7-86.3s12.7-63.2,35.7-86.3C86.8,40.7,117.4,28,150,28
		 M150,23C79.9,23,23,79.9,23,150s56.9,127,127,127s127-56.9,127-127S220.1,23,150,23L150,23z"/>
</g>
<g>
	<path class="st0" d="M150,35.5c30.6,0,59.3,11.9,81,33.5s33.5,50.4,33.5,81s-11.9,59.3-33.5,81s-50.4,33.5-81,33.5
		S90.7,252.6,69,231s-33.5-50.4-33.5-81c0-30.6,11.9-59.3,33.5-81S119.4,35.5,150,35.5 M150,34.5C86.2,34.5,34.5,86.2,34.5,150
		S86.2,265.5,150,265.5S265.5,213.8,265.5,150S213.8,34.5,150,34.5L150,34.5z"/>
</g>
<line class="st1" x1="150" y1="34.5" x2="150" y2="66.4"/>
<line class="st1" x1="120.1" y1="38.4" x2="128.4" y2="69.2"/>
<line class="st1" x1="92.2" y1="50" x2="108.2" y2="77.6"/>
<line class="st1" x1="68.3" y1="68.3" x2="90.9" y2="90.9"/>
<line class="st1" x1="50" y1="92.2" x2="77.6" y2="108.2"/>
<line class="st1" x1="38.4" y1="120.1" x2="69.2" y2="128.4"/>
<line class="st1" x1="34.5" y1="150" x2="66.4" y2="150"/>
<line class="st1" x1="38.4" y1="179.9" x2="69.2" y2="171.6"/>
<line class="st1" x1="50" y1="207.8" x2="77.6" y2="191.8"/>
<line class="st1" x1="68.3" y1="231.7" x2="90.9" y2="209.1"/>
<line class="st1" x1="92.2" y1="250" x2="108.2" y2="222.4"/>
<line class="st1" x1="120.1" y1="261.6" x2="128.4" y2="230.8"/>
<line class="st1" x1="150" y1="265.5" x2="150" y2="233.6"/>
<line class="st1" x1="179.9" y1="261.6" x2="171.6" y2="230.8"/>
<line class="st1" x1="207.8" y1="250" x2="191.8" y2="222.4"/>
<line class="st1" x1="231.7" y1="231.7" x2="209.1" y2="209.1"/>
<line class="st1" x1="250" y1="207.8" x2="222.4" y2="191.8"/>
<line class="st1" x1="261.6" y1="179.9" x2="230.8" y2="171.6"/>
<line class="st1" x1="265.5" y1="150" x2="233.6" y2="150"/>
<line class="st1" x1="261.6" y1="120.1" x2="230.8" y2="128.4"/>
<line class="st1" x1="250" y1="92.2" x2="222.4" y2="108.2"/>
<line class="st1" x1="231.7" y1="68.3" x2="209.1" y2="90.9"/>
<line class="st1" x1="207.8" y1="50" x2="191.8" y2="77.6"/>
<line class="st1" x1="179.9" y1="38.4" x2="171.6" y2="69.2"/>
</svg>
