<svg id="Ebene_1" data-name="Ebene 1" xmlns="http://www.w3.org/2000/svg" width="300" height="300" viewBox="0 0 300 300"><defs><style>.cls-1{fill:#ffd300;}.cls-2{fill:#0c1619;}.cls-3{fill:#fff;}</style></defs><title>haubzit_yellow</title><rect class="cls-1" width="300" height="300"/><path class="cls-2" d="M152.07,275a130,130,0,0,1-130-130h260A130,130,0,0,1,152.07,275Z"/><path class="cls-2" d="M59.68,114H49.1V95.63H32.16V114H21.51V68.3H32.16V87.46H49.1V68.3H59.68Z"/><path class="cls-2" d="M91.76,105.15H77.34L74.76,114H64.08L78.84,68.3h11.4L105,114H94.36ZM79.69,97H89.4L84.63,80.61h-.19Z"/><path class="cls-2" d="M145.29,68.3v30q0,7.82-5.2,12.13t-13.62,4.3q-8.51,0-13.73-4.3t-5.21-12.13v-30h10.65v30q0,4.21,2.17,6.24a8.63,8.63,0,0,0,6.13,2,8.45,8.45,0,0,0,6-2q2.12-2,2.12-6.25v-30Z"/><path class="cls-2" d="M152.26,114V68.3H168q8.51,0,13.29,3.16T186,80.87a11,11,0,0,1-1.54,5.81,9.43,9.43,0,0,1-4.74,3.83,9.42,9.42,0,0,1,5.94,3.66,10.8,10.8,0,0,1,1.92,6.33q0,6.69-4.49,10.12T170.23,114Zm10.65-26.67h5.28a9.28,9.28,0,0,0,5.4-1.4,4.57,4.57,0,0,0,1.79-3.91,4.92,4.92,0,0,0-1.82-4.26q-1.82-1.34-5.59-1.34h-5.06Zm0,7v11.47h7.32a8.13,8.13,0,0,0,5.09-1.33,4.9,4.9,0,0,0,1.7-4.1,6.28,6.28,0,0,0-1.46-4.51q-1.46-1.52-4.73-1.52Z"/><path class="cls-2" d="M205.16,105.87H226V114H192.1v-4.78l20.45-32.8H192V68.3h33.71v4.59Z"/><path class="cls-2" d="M242.45,114H231.87V68.3h10.59Z"/><path class="cls-2" d="M281.34,76.47H269.28V114H258.63V76.47h-12V68.3h34.68Z"/><path class="cls-3" d="M147,136H277a5,5,0,0,0,5-5h0a5,5,0,0,0-5-5H147Z"/><path class="cls-3" d="M147.07,136v74c0,8.44,10,8.44,10,0V136Z"/></svg>