<?xml version="1.0" encoding="utf-8"?>
<!-- Generator: Adobe Illustrator 21.1.0, SVG Export Plug-In . SVG Version: 6.00 Build 0)  -->
<svg version="1.1" id="Ebene_1" xmlns="http://www.w3.org/2000/svg" xmlns:xlink="http://www.w3.org/1999/xlink" x="0px" y="0px"
	 viewBox="0 0 540 600" style="enable-background:new 0 0 540 600;" xml:space="preserve">
<style type="text/css">
	.st0{clip-path:url(#SVGID_2_);}
	.st1{clip-path:url(#SVGID_4_);}
	.st2{fill:#FFD300;}
	.st3{clip-path:url(#SVGID_6_);}
	.st4{clip-path:url(#SVGID_8_);}
	.st5{clip-path:url(#SVGID_10_);}
	.st6{clip-path:url(#SVGID_12_);}
	.st7{clip-path:url(#SVGID_14_);}
	.st8{clip-path:url(#SVGID_16_);}
	.st9{clip-path:url(#SVGID_18_);}
	.st10{clip-path:url(#SVGID_20_);}
	.st11{clip-path:url(#SVGID_22_);}
	.st12{clip-path:url(#SVGID_24_);}
	.st13{clip-path:url(#SVGID_26_);}
</style>
<g id="Test">
	<g>
		<defs>
			<rect id="SVGID_1_" width="540" height="600"/>
		</defs>
		<clipPath id="SVGID_2_">
			<use xlink:href="#SVGID_1_"  style="overflow:visible;"/>
		</clipPath>
		<g class="st0">
			<g>
				<defs>
					<rect id="SVGID_3_" x="480" y="-150" width="180" height="300"/>
				</defs>
				<clipPath id="SVGID_4_">
					<use xlink:href="#SVGID_3_"  style="overflow:visible;"/>
				</clipPath>
				<g class="st1">
					<path class="st2" d="M718.4,55.2l24.4,42.3l-24.4,42.3h-48.8l-24.4-42.3l24.4-42.3 M719,54.2h-50l-25,43.3l25,43.3h50l25-43.3
						L719,54.2L719,54.2z"/>
					<path class="st2" d="M630.4,104.2l24.4,42.3l-24.4,42.3h-48.8l-24.4-42.3l24.4-42.3H630.4 M631,103.2h-50l-25,43.3l25,43.3h50
						l25-43.3L631,103.2L631,103.2z"/>
				</g>
				<g class="st1">
					<path class="st2" d="M538.4,55.2l24.4,42.3l-24.4,42.3h-48.8l-24.4-42.3l24.4-42.3 M539,54.2h-50l-25,43.3l25,43.3h50l25-43.3
						L539,54.2L539,54.2z"/>
				</g>
				<g class="st1">
					<path class="st2" d="M720.4-45.8l24.4,42.3l-24.4,42.3h-48.8L647.2-3.5l24.4-42.3H720.4 M721-46.8h-50L646-3.5l25,43.3h50
						l25-43.3L721-46.8L721-46.8z"/>
				</g>
				<g class="st1">
					<path class="st2" d="M628.4-94.8l24.4,42.3l-24.4,42.3h-48.8l-24.4-42.3l24.4-42.3 M629-95.8h-50l-25,43.3l25,43.3h50l25-43.3
						L629-95.8L629-95.8z"/>
					<path class="st2" d="M628.4,4.2l24.4,42.3l-24.4,42.3h-48.8l-24.4-42.3l24.4-42.3H628.4 M629,3.2h-50l-25,43.3l25,43.3h50
						l25-43.3L629,3.2L629,3.2z"/>
					<path class="st2" d="M540.4-45.8l24.4,42.3l-24.4,42.3h-48.8L467.2-3.5l24.4-42.3H540.4 M541-46.8h-50L466-3.5l25,43.3h50
						l25-43.3L541-46.8L541-46.8z"/>
				</g>
				<g class="st1">
					<path class="st2" d="M718.4-145.8l24.4,42.3l-24.4,42.3h-48.8l-24.4-42.3l24.4-42.3H718.4 M719-146.8h-50l-25,43.3l25,43.3h50
						l25-43.3L719-146.8L719-146.8z"/>
					<path class="st2" d="M630.4-195.8l24.4,42.3l-24.4,42.3h-48.8l-24.4-42.3l24.4-42.3H630.4 M631-196.8h-50l-25,43.3l25,43.3h50
						l25-43.3L631-196.8L631-196.8z"/>
				</g>
				<g class="st1">
					<path class="st2" d="M538.4-145.8l24.4,42.3l-24.4,42.3h-48.8l-24.4-42.3l24.4-42.3H538.4 M539-146.8h-50l-25,43.3l25,43.3h50
						l25-43.3L539-146.8L539-146.8z"/>
				</g>
			</g>
		</g>
		<g class="st0">
			<g>
				<defs>
					<rect id="SVGID_5_" x="480" y="150" width="180" height="300"/>
				</defs>
				<clipPath id="SVGID_6_">
					<use xlink:href="#SVGID_5_"  style="overflow:visible;"/>
				</clipPath>
				<g class="st3">
					<path class="st2" d="M718.4,355.2l24.4,42.3l-24.4,42.3h-48.8l-24.4-42.3l24.4-42.3 M719,354.2h-50l-25,43.3l25,43.3h50
						l25-43.3L719,354.2L719,354.2z"/>
					<path class="st2" d="M630.4,404.2l24.4,42.3l-24.4,42.3h-48.8l-24.4-42.3l24.4-42.3H630.4 M631,403.2h-50l-25,43.3l25,43.3h50
						l25-43.3L631,403.2L631,403.2z"/>
				</g>
				<g class="st3">
					<path class="st2" d="M538.4,355.2l24.4,42.3l-24.4,42.3h-48.8l-24.4-42.3l24.4-42.3 M539,354.2h-50l-25,43.3l25,43.3h50
						l25-43.3L539,354.2L539,354.2z"/>
				</g>
				<g class="st3">
					<path class="st2" d="M720.4,254.2l24.4,42.3l-24.4,42.3h-48.8l-24.4-42.3l24.4-42.3H720.4 M721,253.2h-50l-25,43.3l25,43.3h50
						l25-43.3L721,253.2L721,253.2z"/>
				</g>
				<g class="st3">
					<path class="st2" d="M628.4,205.2l24.4,42.3l-24.4,42.3h-48.8l-24.4-42.3l24.4-42.3 M629,204.2h-50l-25,43.3l25,43.3h50
						l25-43.3L629,204.2L629,204.2z"/>
					<path class="st2" d="M628.4,304.2l24.4,42.3l-24.4,42.3h-48.8l-24.4-42.3l24.4-42.3H628.4 M629,303.2h-50l-25,43.3l25,43.3h50
						l25-43.3L629,303.2L629,303.2z"/>
					<path class="st2" d="M540.4,254.2l24.4,42.3l-24.4,42.3h-48.8l-24.4-42.3l24.4-42.3H540.4 M541,253.2h-50l-25,43.3l25,43.3h50
						l25-43.3L541,253.2L541,253.2z"/>
				</g>
				<g class="st3">
					<path class="st2" d="M718.4,154.2l24.4,42.3l-24.4,42.3h-48.8l-24.4-42.3l24.4-42.3H718.4 M719,153.2h-50l-25,43.3l25,43.3h50
						l25-43.3L719,153.2L719,153.2z"/>
					<path class="st2" d="M630.4,104.2l24.4,42.3l-24.4,42.3h-48.8l-24.4-42.3l24.4-42.3H630.4 M631,103.2h-50l-25,43.3l25,43.3h50
						l25-43.3L631,103.2L631,103.2z"/>
				</g>
				<g class="st3">
					<path class="st2" d="M538.4,154.2l24.4,42.3l-24.4,42.3h-48.8l-24.4-42.3l24.4-42.3H538.4 M539,153.2h-50l-25,43.3l25,43.3h50
						l25-43.3L539,153.2L539,153.2z"/>
				</g>
			</g>
		</g>
		<g class="st0">
			<g>
				<defs>
					<rect id="SVGID_7_" x="480" y="450" width="180" height="300"/>
				</defs>
				<clipPath id="SVGID_8_">
					<use xlink:href="#SVGID_7_"  style="overflow:visible;"/>
				</clipPath>
				<g class="st4">
					<path class="st2" d="M718.4,655.2l24.4,42.3l-24.4,42.3h-48.8l-24.4-42.3l24.4-42.3 M719,654.2h-50l-25,43.3l25,43.3h50
						l25-43.3L719,654.2L719,654.2z"/>
					<path class="st2" d="M630.4,704.2l24.4,42.3l-24.4,42.3h-48.8l-24.4-42.3l24.4-42.3H630.4 M631,703.2h-50l-25,43.3l25,43.3h50
						l25-43.3L631,703.2L631,703.2z"/>
				</g>
				<g class="st4">
					<path class="st2" d="M538.4,655.2l24.4,42.3l-24.4,42.3h-48.8l-24.4-42.3l24.4-42.3 M539,654.2h-50l-25,43.3l25,43.3h50
						l25-43.3L539,654.2L539,654.2z"/>
				</g>
				<g class="st4">
					<path class="st2" d="M720.4,554.2l24.4,42.3l-24.4,42.3h-48.8l-24.4-42.3l24.4-42.3H720.4 M721,553.2h-50l-25,43.3l25,43.3h50
						l25-43.3L721,553.2L721,553.2z"/>
				</g>
				<g class="st4">
					<path class="st2" d="M628.4,505.2l24.4,42.3l-24.4,42.3h-48.8l-24.4-42.3l24.4-42.3 M629,504.2h-50l-25,43.3l25,43.3h50
						l25-43.3L629,504.2L629,504.2z"/>
					<path class="st2" d="M628.4,604.2l24.4,42.3l-24.4,42.3h-48.8l-24.4-42.3l24.4-42.3H628.4 M629,603.2h-50l-25,43.3l25,43.3h50
						l25-43.3L629,603.2L629,603.2z"/>
					<path class="st2" d="M540.4,554.2l24.4,42.3l-24.4,42.3h-48.8l-24.4-42.3l24.4-42.3H540.4 M541,553.2h-50l-25,43.3l25,43.3h50
						l25-43.3L541,553.2L541,553.2z"/>
				</g>
				<g class="st4">
					<path class="st2" d="M718.4,454.2l24.4,42.3l-24.4,42.3h-48.8l-24.4-42.3l24.4-42.3H718.4 M719,453.2h-50l-25,43.3l25,43.3h50
						l25-43.3L719,453.2L719,453.2z"/>
					<path class="st2" d="M630.4,404.2l24.4,42.3l-24.4,42.3h-48.8l-24.4-42.3l24.4-42.3H630.4 M631,403.2h-50l-25,43.3l25,43.3h50
						l25-43.3L631,403.2L631,403.2z"/>
				</g>
				<g class="st4">
					<path class="st2" d="M538.4,454.2l24.4,42.3l-24.4,42.3h-48.8l-24.4-42.3l24.4-42.3H538.4 M539,453.2h-50l-25,43.3l25,43.3h50
						l25-43.3L539,453.2L539,453.2z"/>
				</g>
			</g>
		</g>
		<g class="st0">
			<g>
				<defs>
					<rect id="SVGID_9_" x="300" y="-150" width="180" height="300"/>
				</defs>
				<clipPath id="SVGID_10_">
					<use xlink:href="#SVGID_9_"  style="overflow:visible;"/>
				</clipPath>
				<g class="st5">
					<path class="st2" d="M538.4,55.2l24.4,42.3l-24.4,42.3h-48.8l-24.4-42.3l24.4-42.3 M539,54.2h-50l-25,43.3l25,43.3h50l25-43.3
						L539,54.2L539,54.2z"/>
					<path class="st2" d="M450.4,104.2l24.4,42.3l-24.4,42.3h-48.8l-24.4-42.3l24.4-42.3H450.4 M451,103.2h-50l-25,43.3l25,43.3h50
						l25-43.3L451,103.2L451,103.2z"/>
				</g>
				<g class="st5">
					<path class="st2" d="M358.4,55.2l24.4,42.3l-24.4,42.3h-48.8l-24.4-42.3l24.4-42.3 M359,54.2h-50l-25,43.3l25,43.3h50l25-43.3
						L359,54.2L359,54.2z"/>
				</g>
				<g class="st5">
					<path class="st2" d="M540.4-45.8l24.4,42.3l-24.4,42.3h-48.8L467.2-3.5l24.4-42.3H540.4 M541-46.8h-50L466-3.5l25,43.3h50
						l25-43.3L541-46.8L541-46.8z"/>
				</g>
				<g class="st5">
					<path class="st2" d="M448.4-94.8l24.4,42.3l-24.4,42.3h-48.8l-24.4-42.3l24.4-42.3 M449-95.8h-50l-25,43.3l25,43.3h50l25-43.3
						L449-95.8L449-95.8z"/>
					<path class="st2" d="M448.4,4.2l24.4,42.3l-24.4,42.3h-48.8l-24.4-42.3l24.4-42.3H448.4 M449,3.2h-50l-25,43.3l25,43.3h50
						l25-43.3L449,3.2L449,3.2z"/>
					<path class="st2" d="M360.4-45.8l24.4,42.3l-24.4,42.3h-48.8L287.2-3.5l24.4-42.3H360.4 M361-46.8h-50L286-3.5l25,43.3h50
						l25-43.3L361-46.8L361-46.8z"/>
				</g>
				<g class="st5">
					<path class="st2" d="M538.4-145.8l24.4,42.3l-24.4,42.3h-48.8l-24.4-42.3l24.4-42.3H538.4 M539-146.8h-50l-25,43.3l25,43.3h50
						l25-43.3L539-146.8L539-146.8z"/>
					<path class="st2" d="M450.4-195.8l24.4,42.3l-24.4,42.3h-48.8l-24.4-42.3l24.4-42.3H450.4 M451-196.8h-50l-25,43.3l25,43.3h50
						l25-43.3L451-196.8L451-196.8z"/>
				</g>
				<g class="st5">
					<path class="st2" d="M358.4-145.8l24.4,42.3l-24.4,42.3h-48.8l-24.4-42.3l24.4-42.3H358.4 M359-146.8h-50l-25,43.3l25,43.3h50
						l25-43.3L359-146.8L359-146.8z"/>
				</g>
			</g>
		</g>
		<g class="st0">
			<g>
				<defs>
					<rect id="SVGID_11_" x="300" y="150" width="180" height="300"/>
				</defs>
				<clipPath id="SVGID_12_">
					<use xlink:href="#SVGID_11_"  style="overflow:visible;"/>
				</clipPath>
				<g class="st6">
					<path class="st2" d="M538.4,355.2l24.4,42.3l-24.4,42.3h-48.8l-24.4-42.3l24.4-42.3 M539,354.2h-50l-25,43.3l25,43.3h50
						l25-43.3L539,354.2L539,354.2z"/>
					<path class="st2" d="M450.4,404.2l24.4,42.3l-24.4,42.3h-48.8l-24.4-42.3l24.4-42.3H450.4 M451,403.2h-50l-25,43.3l25,43.3h50
						l25-43.3L451,403.2L451,403.2z"/>
				</g>
				<g class="st6">
					<path class="st2" d="M358.4,355.2l24.4,42.3l-24.4,42.3h-48.8l-24.4-42.3l24.4-42.3 M359,354.2h-50l-25,43.3l25,43.3h50
						l25-43.3L359,354.2L359,354.2z"/>
				</g>
				<g class="st6">
					<path class="st2" d="M540.4,254.2l24.4,42.3l-24.4,42.3h-48.8l-24.4-42.3l24.4-42.3H540.4 M541,253.2h-50l-25,43.3l25,43.3h50
						l25-43.3L541,253.2L541,253.2z"/>
				</g>
				<g class="st6">
					<path class="st2" d="M448.4,205.2l24.4,42.3l-24.4,42.3h-48.8l-24.4-42.3l24.4-42.3 M449,204.2h-50l-25,43.3l25,43.3h50
						l25-43.3L449,204.2L449,204.2z"/>
					<path class="st2" d="M448.4,304.2l24.4,42.3l-24.4,42.3h-48.8l-24.4-42.3l24.4-42.3H448.4 M449,303.2h-50l-25,43.3l25,43.3h50
						l25-43.3L449,303.2L449,303.2z"/>
					<path class="st2" d="M360.4,254.2l24.4,42.3l-24.4,42.3h-48.8l-24.4-42.3l24.4-42.3H360.4 M361,253.2h-50l-25,43.3l25,43.3h50
						l25-43.3L361,253.2L361,253.2z"/>
				</g>
				<g class="st6">
					<path class="st2" d="M538.4,154.2l24.4,42.3l-24.4,42.3h-48.8l-24.4-42.3l24.4-42.3H538.4 M539,153.2h-50l-25,43.3l25,43.3h50
						l25-43.3L539,153.2L539,153.2z"/>
					<path class="st2" d="M450.4,104.2l24.4,42.3l-24.4,42.3h-48.8l-24.4-42.3l24.4-42.3H450.4 M451,103.2h-50l-25,43.3l25,43.3h50
						l25-43.3L451,103.2L451,103.2z"/>
				</g>
				<g class="st6">
					<path class="st2" d="M358.4,154.2l24.4,42.3l-24.4,42.3h-48.8l-24.4-42.3l24.4-42.3H358.4 M359,153.2h-50l-25,43.3l25,43.3h50
						l25-43.3L359,153.2L359,153.2z"/>
				</g>
			</g>
		</g>
		<g class="st0">
			<g>
				<defs>
					<rect id="SVGID_13_" x="300" y="450" width="180" height="300"/>
				</defs>
				<clipPath id="SVGID_14_">
					<use xlink:href="#SVGID_13_"  style="overflow:visible;"/>
				</clipPath>
				<g class="st7">
					<path class="st2" d="M538.4,655.2l24.4,42.3l-24.4,42.3h-48.8l-24.4-42.3l24.4-42.3 M539,654.2h-50l-25,43.3l25,43.3h50
						l25-43.3L539,654.2L539,654.2z"/>
					<path class="st2" d="M450.4,704.2l24.4,42.3l-24.4,42.3h-48.8l-24.4-42.3l24.4-42.3H450.4 M451,703.2h-50l-25,43.3l25,43.3h50
						l25-43.3L451,703.2L451,703.2z"/>
				</g>
				<g class="st7">
					<path class="st2" d="M358.4,655.2l24.4,42.3l-24.4,42.3h-48.8l-24.4-42.3l24.4-42.3 M359,654.2h-50l-25,43.3l25,43.3h50
						l25-43.3L359,654.2L359,654.2z"/>
				</g>
				<g class="st7">
					<path class="st2" d="M540.4,554.2l24.4,42.3l-24.4,42.3h-48.8l-24.4-42.3l24.4-42.3H540.4 M541,553.2h-50l-25,43.3l25,43.3h50
						l25-43.3L541,553.2L541,553.2z"/>
				</g>
				<g class="st7">
					<path class="st2" d="M448.4,505.2l24.4,42.3l-24.4,42.3h-48.8l-24.4-42.3l24.4-42.3 M449,504.2h-50l-25,43.3l25,43.3h50
						l25-43.3L449,504.2L449,504.2z"/>
					<path class="st2" d="M448.4,604.2l24.4,42.3l-24.4,42.3h-48.8l-24.4-42.3l24.4-42.3H448.4 M449,603.2h-50l-25,43.3l25,43.3h50
						l25-43.3L449,603.2L449,603.2z"/>
					<path class="st2" d="M360.4,554.2l24.4,42.3l-24.4,42.3h-48.8l-24.4-42.3l24.4-42.3H360.4 M361,553.2h-50l-25,43.3l25,43.3h50
						l25-43.3L361,553.2L361,553.2z"/>
				</g>
				<g class="st7">
					<path class="st2" d="M538.4,454.2l24.4,42.3l-24.4,42.3h-48.8l-24.4-42.3l24.4-42.3H538.4 M539,453.2h-50l-25,43.3l25,43.3h50
						l25-43.3L539,453.2L539,453.2z"/>
					<path class="st2" d="M450.4,404.2l24.4,42.3l-24.4,42.3h-48.8l-24.4-42.3l24.4-42.3H450.4 M451,403.2h-50l-25,43.3l25,43.3h50
						l25-43.3L451,403.2L451,403.2z"/>
				</g>
				<g class="st7">
					<path class="st2" d="M358.4,454.2l24.4,42.3l-24.4,42.3h-48.8l-24.4-42.3l24.4-42.3H358.4 M359,453.2h-50l-25,43.3l25,43.3h50
						l25-43.3L359,453.2L359,453.2z"/>
				</g>
			</g>
		</g>
		<g class="st0">
			<g>
				<defs>
					<rect id="SVGID_15_" x="120" y="-150" width="180" height="300"/>
				</defs>
				<clipPath id="SVGID_16_">
					<use xlink:href="#SVGID_15_"  style="overflow:visible;"/>
				</clipPath>
				<g class="st8">
					<path class="st2" d="M358.4,55.2l24.4,42.3l-24.4,42.3h-48.8l-24.4-42.3l24.4-42.3 M359,54.2h-50l-25,43.3l25,43.3h50l25-43.3
						L359,54.2L359,54.2z"/>
					<path class="st2" d="M270.4,104.2l24.4,42.3l-24.4,42.3h-48.8l-24.4-42.3l24.4-42.3H270.4 M271,103.2h-50l-25,43.3l25,43.3h50
						l25-43.3L271,103.2L271,103.2z"/>
				</g>
				<g class="st8">
					<path class="st2" d="M178.4,55.2l24.4,42.3l-24.4,42.3h-48.8l-24.4-42.3l24.4-42.3 M179,54.2h-50l-25,43.3l25,43.3h50l25-43.3
						L179,54.2L179,54.2z"/>
				</g>
				<g class="st8">
					<path class="st2" d="M360.4-45.8l24.4,42.3l-24.4,42.3h-48.8L287.2-3.5l24.4-42.3H360.4 M361-46.8h-50L286-3.5l25,43.3h50
						l25-43.3L361-46.8L361-46.8z"/>
				</g>
				<g class="st8">
					<path class="st2" d="M268.4-94.8l24.4,42.3l-24.4,42.3h-48.8l-24.4-42.3l24.4-42.3 M269-95.8h-50l-25,43.3l25,43.3h50l25-43.3
						L269-95.8L269-95.8z"/>
					<path class="st2" d="M268.4,4.2l24.4,42.3l-24.4,42.3h-48.8l-24.4-42.3l24.4-42.3H268.4 M269,3.2h-50l-25,43.3l25,43.3h50
						l25-43.3L269,3.2L269,3.2z"/>
					<path class="st2" d="M180.4-45.8l24.4,42.3l-24.4,42.3h-48.8L107.2-3.5l24.4-42.3H180.4 M181-46.8h-50L106-3.5l25,43.3h50
						l25-43.3L181-46.8L181-46.8z"/>
				</g>
				<g class="st8">
					<path class="st2" d="M358.4-145.8l24.4,42.3l-24.4,42.3h-48.8l-24.4-42.3l24.4-42.3H358.4 M359-146.8h-50l-25,43.3l25,43.3h50
						l25-43.3L359-146.8L359-146.8z"/>
					<path class="st2" d="M270.4-195.8l24.4,42.3l-24.4,42.3h-48.8l-24.4-42.3l24.4-42.3H270.4 M271-196.8h-50l-25,43.3l25,43.3h50
						l25-43.3L271-196.8L271-196.8z"/>
				</g>
				<g class="st8">
					<path class="st2" d="M178.4-145.8l24.4,42.3l-24.4,42.3h-48.8l-24.4-42.3l24.4-42.3H178.4 M179-146.8h-50l-25,43.3l25,43.3h50
						l25-43.3L179-146.8L179-146.8z"/>
				</g>
			</g>
		</g>
		<g class="st0">
			<g>
				<defs>
					<rect id="SVGID_17_" x="120" y="150" width="180" height="300"/>
				</defs>
				<clipPath id="SVGID_18_">
					<use xlink:href="#SVGID_17_"  style="overflow:visible;"/>
				</clipPath>
				<g class="st9">
					<path class="st2" d="M358.4,355.2l24.4,42.3l-24.4,42.3h-48.8l-24.4-42.3l24.4-42.3 M359,354.2h-50l-25,43.3l25,43.3h50
						l25-43.3L359,354.2L359,354.2z"/>
					<path class="st2" d="M270.4,404.2l24.4,42.3l-24.4,42.3h-48.8l-24.4-42.3l24.4-42.3H270.4 M271,403.2h-50l-25,43.3l25,43.3h50
						l25-43.3L271,403.2L271,403.2z"/>
				</g>
				<g class="st9">
					<path class="st2" d="M178.4,355.2l24.4,42.3l-24.4,42.3h-48.8l-24.4-42.3l24.4-42.3 M179,354.2h-50l-25,43.3l25,43.3h50
						l25-43.3L179,354.2L179,354.2z"/>
				</g>
				<g class="st9">
					<path class="st2" d="M360.4,254.2l24.4,42.3l-24.4,42.3h-48.8l-24.4-42.3l24.4-42.3H360.4 M361,253.2h-50l-25,43.3l25,43.3h50
						l25-43.3L361,253.2L361,253.2z"/>
				</g>
				<g class="st9">
					<path class="st2" d="M268.4,205.2l24.4,42.3l-24.4,42.3h-48.8l-24.4-42.3l24.4-42.3 M269,204.2h-50l-25,43.3l25,43.3h50
						l25-43.3L269,204.2L269,204.2z"/>
					<path class="st2" d="M268.4,304.2l24.4,42.3l-24.4,42.3h-48.8l-24.4-42.3l24.4-42.3H268.4 M269,303.2h-50l-25,43.3l25,43.3h50
						l25-43.3L269,303.2L269,303.2z"/>
					<path class="st2" d="M180.4,254.2l24.4,42.3l-24.4,42.3h-48.8l-24.4-42.3l24.4-42.3H180.4 M181,253.2h-50l-25,43.3l25,43.3h50
						l25-43.3L181,253.2L181,253.2z"/>
				</g>
				<g class="st9">
					<path class="st2" d="M358.4,154.2l24.4,42.3l-24.4,42.3h-48.8l-24.4-42.3l24.4-42.3H358.4 M359,153.2h-50l-25,43.3l25,43.3h50
						l25-43.3L359,153.2L359,153.2z"/>
					<path class="st2" d="M270.4,104.2l24.4,42.3l-24.4,42.3h-48.8l-24.4-42.3l24.4-42.3H270.4 M271,103.2h-50l-25,43.3l25,43.3h50
						l25-43.3L271,103.2L271,103.2z"/>
				</g>
				<g class="st9">
					<path class="st2" d="M178.4,154.2l24.4,42.3l-24.4,42.3h-48.8l-24.4-42.3l24.4-42.3H178.4 M179,153.2h-50l-25,43.3l25,43.3h50
						l25-43.3L179,153.2L179,153.2z"/>
				</g>
			</g>
		</g>
		<g class="st0">
			<g>
				<defs>
					<rect id="SVGID_19_" x="120" y="450" width="180" height="300"/>
				</defs>
				<clipPath id="SVGID_20_">
					<use xlink:href="#SVGID_19_"  style="overflow:visible;"/>
				</clipPath>
				<g class="st10">
					<path class="st2" d="M358.4,655.2l24.4,42.3l-24.4,42.3h-48.8l-24.4-42.3l24.4-42.3 M359,654.2h-50l-25,43.3l25,43.3h50
						l25-43.3L359,654.2L359,654.2z"/>
					<path class="st2" d="M270.4,704.2l24.4,42.3l-24.4,42.3h-48.8l-24.4-42.3l24.4-42.3H270.4 M271,703.2h-50l-25,43.3l25,43.3h50
						l25-43.3L271,703.2L271,703.2z"/>
				</g>
				<g class="st10">
					<path class="st2" d="M178.4,655.2l24.4,42.3l-24.4,42.3h-48.8l-24.4-42.3l24.4-42.3 M179,654.2h-50l-25,43.3l25,43.3h50
						l25-43.3L179,654.2L179,654.2z"/>
				</g>
				<g class="st10">
					<path class="st2" d="M360.4,554.2l24.4,42.3l-24.4,42.3h-48.8l-24.4-42.3l24.4-42.3H360.4 M361,553.2h-50l-25,43.3l25,43.3h50
						l25-43.3L361,553.2L361,553.2z"/>
				</g>
				<g class="st10">
					<path class="st2" d="M268.4,505.2l24.4,42.3l-24.4,42.3h-48.8l-24.4-42.3l24.4-42.3 M269,504.2h-50l-25,43.3l25,43.3h50
						l25-43.3L269,504.2L269,504.2z"/>
					<path class="st2" d="M268.4,604.2l24.4,42.3l-24.4,42.3h-48.8l-24.4-42.3l24.4-42.3H268.4 M269,603.2h-50l-25,43.3l25,43.3h50
						l25-43.3L269,603.2L269,603.2z"/>
					<path class="st2" d="M180.4,554.2l24.4,42.3l-24.4,42.3h-48.8l-24.4-42.3l24.4-42.3H180.4 M181,553.2h-50l-25,43.3l25,43.3h50
						l25-43.3L181,553.2L181,553.2z"/>
				</g>
				<g class="st10">
					<path class="st2" d="M358.4,454.2l24.4,42.3l-24.4,42.3h-48.8l-24.4-42.3l24.4-42.3H358.4 M359,453.2h-50l-25,43.3l25,43.3h50
						l25-43.3L359,453.2L359,453.2z"/>
					<path class="st2" d="M270.4,404.2l24.4,42.3l-24.4,42.3h-48.8l-24.4-42.3l24.4-42.3H270.4 M271,403.2h-50l-25,43.3l25,43.3h50
						l25-43.3L271,403.2L271,403.2z"/>
				</g>
				<g class="st10">
					<path class="st2" d="M178.4,454.2l24.4,42.3l-24.4,42.3h-48.8l-24.4-42.3l24.4-42.3H178.4 M179,453.2h-50l-25,43.3l25,43.3h50
						l25-43.3L179,453.2L179,453.2z"/>
				</g>
			</g>
		</g>
		<g class="st0">
			<g>
				<defs>
					<rect id="SVGID_21_" x="-60" y="-150" width="180" height="300"/>
				</defs>
				<clipPath id="SVGID_22_">
					<use xlink:href="#SVGID_21_"  style="overflow:visible;"/>
				</clipPath>
				<g class="st11">
					<path class="st2" d="M178.4,55.2l24.4,42.3l-24.4,42.3h-48.8l-24.4-42.3l24.4-42.3 M179,54.2h-50l-25,43.3l25,43.3h50l25-43.3
						L179,54.2L179,54.2z"/>
					<path class="st2" d="M90.4,104.2l24.4,42.3l-24.4,42.3H41.6l-24.4-42.3l24.4-42.3H90.4 M91,103.2H41l-25,43.3l25,43.3h50
						l25-43.3L91,103.2L91,103.2z"/>
				</g>
				<g class="st11">
					<path class="st2" d="M-1.6,55.2l24.4,42.3l-24.4,42.3h-48.8l-24.4-42.3l24.4-42.3 M-1,54.2h-50l-25,43.3l25,43.3h50l25-43.3
						L-1,54.2L-1,54.2z"/>
				</g>
				<g class="st11">
					<path class="st2" d="M180.4-45.8l24.4,42.3l-24.4,42.3h-48.8L107.2-3.5l24.4-42.3H180.4 M181-46.8h-50L106-3.5l25,43.3h50
						l25-43.3L181-46.8L181-46.8z"/>
				</g>
				<g class="st11">
					<path class="st2" d="M88.4-94.8l24.4,42.3L88.4-10.2H39.6L15.2-52.5l24.4-42.3 M89-95.8H39L14-52.5L39-9.2h50l25-43.3L89-95.8
						L89-95.8z"/>
					<path class="st2" d="M88.4,4.2l24.4,42.3L88.4,88.8H39.6L15.2,46.5L39.6,4.2H88.4 M89,3.2H39L14,46.5l25,43.3h50l25-43.3
						L89,3.2L89,3.2z"/>
					<path class="st2" d="M0.4-45.8L24.8-3.5L0.4,38.8h-48.8L-72.8-3.5l24.4-42.3H0.4 M1-46.8h-50L-74-3.5l25,43.3H1L26-3.5L1-46.8
						L1-46.8z"/>
				</g>
				<g class="st11">
					<path class="st2" d="M178.4-145.8l24.4,42.3l-24.4,42.3h-48.8l-24.4-42.3l24.4-42.3H178.4 M179-146.8h-50l-25,43.3l25,43.3h50
						l25-43.3L179-146.8L179-146.8z"/>
					<path class="st2" d="M90.4-195.8l24.4,42.3l-24.4,42.3H41.6l-24.4-42.3l24.4-42.3H90.4 M91-196.8H41l-25,43.3l25,43.3h50
						l25-43.3L91-196.8L91-196.8z"/>
				</g>
				<g class="st11">
					<path class="st2" d="M-1.6-145.8l24.4,42.3L-1.6-61.2h-48.8l-24.4-42.3l24.4-42.3H-1.6 M-1-146.8h-50l-25,43.3l25,43.3h50
						l25-43.3L-1-146.8L-1-146.8z"/>
				</g>
			</g>
		</g>
		<g class="st0">
			<g>
				<defs>
					<rect id="SVGID_23_" x="-60" y="150" width="180" height="300"/>
				</defs>
				<clipPath id="SVGID_24_">
					<use xlink:href="#SVGID_23_"  style="overflow:visible;"/>
				</clipPath>
				<g class="st12">
					<path class="st2" d="M178.4,355.2l24.4,42.3l-24.4,42.3h-48.8l-24.4-42.3l24.4-42.3 M179,354.2h-50l-25,43.3l25,43.3h50
						l25-43.3L179,354.2L179,354.2z"/>
					<path class="st2" d="M90.4,404.2l24.4,42.3l-24.4,42.3H41.6l-24.4-42.3l24.4-42.3H90.4 M91,403.2H41l-25,43.3l25,43.3h50
						l25-43.3L91,403.2L91,403.2z"/>
				</g>
				<g class="st12">
					<path class="st2" d="M-1.6,355.2l24.4,42.3l-24.4,42.3h-48.8l-24.4-42.3l24.4-42.3 M-1,354.2h-50l-25,43.3l25,43.3h50l25-43.3
						L-1,354.2L-1,354.2z"/>
				</g>
				<g class="st12">
					<path class="st2" d="M180.4,254.2l24.4,42.3l-24.4,42.3h-48.8l-24.4-42.3l24.4-42.3H180.4 M181,253.2h-50l-25,43.3l25,43.3h50
						l25-43.3L181,253.2L181,253.2z"/>
				</g>
				<g class="st12">
					<path class="st2" d="M88.4,205.2l24.4,42.3l-24.4,42.3H39.6l-24.4-42.3l24.4-42.3 M89,204.2H39l-25,43.3l25,43.3h50l25-43.3
						L89,204.2L89,204.2z"/>
					<path class="st2" d="M88.4,304.2l24.4,42.3l-24.4,42.3H39.6l-24.4-42.3l24.4-42.3H88.4 M89,303.2H39l-25,43.3l25,43.3h50
						l25-43.3L89,303.2L89,303.2z"/>
					<path class="st2" d="M0.4,254.2l24.4,42.3L0.4,338.8h-48.8l-24.4-42.3l24.4-42.3H0.4 M1,253.2h-50l-25,43.3l25,43.3H1l25-43.3
						L1,253.2L1,253.2z"/>
				</g>
				<g class="st12">
					<path class="st2" d="M178.4,154.2l24.4,42.3l-24.4,42.3h-48.8l-24.4-42.3l24.4-42.3H178.4 M179,153.2h-50l-25,43.3l25,43.3h50
						l25-43.3L179,153.2L179,153.2z"/>
					<path class="st2" d="M90.4,104.2l24.4,42.3l-24.4,42.3H41.6l-24.4-42.3l24.4-42.3H90.4 M91,103.2H41l-25,43.3l25,43.3h50
						l25-43.3L91,103.2L91,103.2z"/>
				</g>
				<g class="st12">
					<path class="st2" d="M-1.6,154.2l24.4,42.3l-24.4,42.3h-48.8l-24.4-42.3l24.4-42.3H-1.6 M-1,153.2h-50l-25,43.3l25,43.3h50
						l25-43.3L-1,153.2L-1,153.2z"/>
				</g>
			</g>
		</g>
		<g class="st0">
			<g>
				<defs>
					<rect id="SVGID_25_" x="-60" y="450" width="180" height="300"/>
				</defs>
				<clipPath id="SVGID_26_">
					<use xlink:href="#SVGID_25_"  style="overflow:visible;"/>
				</clipPath>
				<g class="st13">
					<path class="st2" d="M178.4,655.2l24.4,42.3l-24.4,42.3h-48.8l-24.4-42.3l24.4-42.3 M179,654.2h-50l-25,43.3l25,43.3h50
						l25-43.3L179,654.2L179,654.2z"/>
					<path class="st2" d="M90.4,704.2l24.4,42.3l-24.4,42.3H41.6l-24.4-42.3l24.4-42.3H90.4 M91,703.2H41l-25,43.3l25,43.3h50
						l25-43.3L91,703.2L91,703.2z"/>
				</g>
				<g class="st13">
					<path class="st2" d="M-1.6,655.2l24.4,42.3l-24.4,42.3h-48.8l-24.4-42.3l24.4-42.3 M-1,654.2h-50l-25,43.3l25,43.3h50l25-43.3
						L-1,654.2L-1,654.2z"/>
				</g>
				<g class="st13">
					<path class="st2" d="M180.4,554.2l24.4,42.3l-24.4,42.3h-48.8l-24.4-42.3l24.4-42.3H180.4 M181,553.2h-50l-25,43.3l25,43.3h50
						l25-43.3L181,553.2L181,553.2z"/>
				</g>
				<g class="st13">
					<path class="st2" d="M88.4,505.2l24.4,42.3l-24.4,42.3H39.6l-24.4-42.3l24.4-42.3 M89,504.2H39l-25,43.3l25,43.3h50l25-43.3
						L89,504.2L89,504.2z"/>
					<path class="st2" d="M88.4,604.2l24.4,42.3l-24.4,42.3H39.6l-24.4-42.3l24.4-42.3H88.4 M89,603.2H39l-25,43.3l25,43.3h50
						l25-43.3L89,603.2L89,603.2z"/>
					<path class="st2" d="M0.4,554.2l24.4,42.3L0.4,638.8h-48.8l-24.4-42.3l24.4-42.3H0.4 M1,553.2h-50l-25,43.3l25,43.3H1l25-43.3
						L1,553.2L1,553.2z"/>
				</g>
				<g class="st13">
					<path class="st2" d="M178.4,454.2l24.4,42.3l-24.4,42.3h-48.8l-24.4-42.3l24.4-42.3H178.4 M179,453.2h-50l-25,43.3l25,43.3h50
						l25-43.3L179,453.2L179,453.2z"/>
					<path class="st2" d="M90.4,404.2l24.4,42.3l-24.4,42.3H41.6l-24.4-42.3l24.4-42.3H90.4 M91,403.2H41l-25,43.3l25,43.3h50
						l25-43.3L91,403.2L91,403.2z"/>
				</g>
				<g class="st13">
					<path class="st2" d="M-1.6,454.2l24.4,42.3l-24.4,42.3h-48.8l-24.4-42.3l24.4-42.3H-1.6 M-1,453.2h-50l-25,43.3l25,43.3h50
						l25-43.3L-1,453.2L-1,453.2z"/>
				</g>
			</g>
		</g>
	</g>
</g>
</svg>
